<svg xmlns="http://www.w3.org/2000/svg" width="14" height="14" fill="none"><path fill="#fff" d="M4.601 1.358C6.646-.13 9.571.187 11.78 1.141c.847.366.11 1.552-.725 1.246-.203-.064-.308-.108-.418-.144a9.944 9.944 0 0 0-1.34-.34c-1.16-.207-2.448-.188-3.501.397-2.008 1.113-2.787 4.115-.933 5.724.7.608-.32 1.625-1.015 1.02C1.442 6.959 2.2 3.107 4.6 1.359zM1 2.474c.343-.851 1.731-.477 1.384.384-.653 1.62-.956 3.796-.08 5.38 1.132 2.05 4.175 2.8 5.76.875.59-.717 1.6.31 1.016 1.02-2.003 2.434-5.807 1.774-7.603-.55C-.034 7.627.111 4.68 1 2.473zm8.4 10.168c-2.044 1.488-4.97 1.171-7.178.217-.847-.366-.115-1.61.725-1.246-.313-.136.308.108.418.144.438.143.886.258 1.34.34 1.159.207 2.448.187 3.501-.397 2.008-1.113 2.786-4.115.933-5.724-.7-.608.319-1.625 1.015-1.02 2.404 2.086 1.647 5.938-.754 7.686zm3.6-1.116c-.343.851-1.731.477-1.384-.384.653-1.62.956-3.797.08-5.38-1.132-2.05-4.175-2.8-5.76-.875-.59.717-1.6-.31-1.016-1.02 2.003-2.434 5.807-1.774 7.603.55 1.511 1.956 1.366 4.903.477 7.11v-.001z"/></svg>