<svg width="30" height="30" viewBox="0 0 30 30" fill="none" xmlns="http://www.w3.org/2000/svg">
<rect width="29.0964" height="29.0965" rx="6" fill="#09090B"/>
<g opacity="0.9">
<path fill-rule="evenodd" clip-rule="evenodd" d="M10.7189 15.866C8.38257 13.7549 8.40771 9.96176 10.5478 7.68226C12.9513 5.12203 17.2025 4.66206 20.5567 6.33381C20.7821 6.4465 20.9598 6.20076 20.7406 6.02476C17.744 3.20768 12.3596 3.33972 9.13608 6.36125C5.96108 9.33714 5.91422 14.6374 9.08724 17.5098C9.60906 17.9831 10.4556 18.1872 10.926 17.6161C11.4183 17.0545 11.201 16.3014 10.7189 15.866Z" fill="white"/>
<path fill-rule="evenodd" clip-rule="evenodd" d="M13.2303 10.7188C15.3415 8.38252 19.1346 8.40759 21.4141 10.5476C23.9744 12.9511 24.4344 17.2024 22.7625 20.5566C22.6498 20.782 22.8956 20.9596 23.0716 20.7404C25.8887 17.7439 25.7566 12.3594 22.7351 9.13603C19.7592 5.96096 14.4589 5.91408 11.5866 9.0871C11.1133 9.60892 10.9091 10.4554 11.4802 10.9259C12.0418 11.4181 12.7949 11.2009 13.2303 10.7188Z" fill="white"/>
<path fill-rule="evenodd" clip-rule="evenodd" d="M18.3772 13.2305C20.7135 15.3416 20.6885 19.1347 18.5484 21.4142C16.1449 23.9745 11.8936 24.4344 8.53946 22.7627C8.31403 22.65 8.13637 22.8957 8.35558 23.0717C11.3522 25.8888 16.7365 25.7567 19.96 22.7352C23.135 19.7593 23.182 14.4591 20.0089 11.5867C19.4871 11.1134 18.6405 10.9093 18.1702 11.4803C17.6778 12.0419 17.8952 12.7951 18.3772 13.2305Z" fill="white"/>
<path fill-rule="evenodd" clip-rule="evenodd" d="M15.8661 18.3771C13.7549 20.7134 9.96176 20.6884 7.68229 18.5483C5.12204 16.1448 4.66206 11.8936 6.33384 8.5394C6.44651 8.31398 6.20077 8.13631 6.02477 8.35551C3.20767 11.3521 3.33972 16.7365 6.36126 19.9599C9.33717 23.1349 14.6375 23.1819 17.5098 20.0088C17.9831 19.487 18.1873 18.6405 17.6161 18.1701C17.0546 17.6778 16.3015 17.8951 15.8661 18.3771Z" fill="white"/>
</g>
</svg>
