<svg width="57" height="56" viewBox="0 0 57 56" fill="none" xmlns="http://www.w3.org/2000/svg">
<path d="M18.4223 4.30432C27.0089 -1.94516 39.2955 -0.615967 48.569 3.3917C52.1281 4.93009 49.0342 9.91159 45.5251 8.62716C44.6728 8.35858 44.2321 8.17313 43.7696 8.02149C41.9305 7.41947 40.0469 6.9353 38.1424 6.59455C33.2731 5.72304 27.8603 5.80526 23.4353 8.25901C15.004 12.9354 11.733 25.5449 19.5172 32.3014C22.4612 34.8565 18.177 39.1264 15.253 36.5886C5.15535 27.8241 8.33557 11.6455 18.4214 4.30432H18.4223ZM3.29629 8.99075C4.73738 5.41518 10.5681 6.98828 9.11155 10.6022C6.36656 17.4108 5.09629 26.5489 8.77263 33.203C13.5284 41.8112 26.3111 44.962 32.9687 36.8736C35.4456 33.8635 39.6898 38.1763 37.2329 41.1608C28.8207 51.3823 12.8433 48.6079 5.30164 38.8487C-1.04699 30.6342 -0.437294 18.2549 3.2972 8.99075H3.29629ZM38.5777 51.6957C29.9911 57.9452 17.7045 56.616 8.43007 52.6083C4.87095 51.0699 7.94668 45.8491 11.474 47.3728C10.161 46.8055 12.767 47.8269 13.2295 47.9785C15.0686 48.5805 16.9522 49.0638 18.8567 49.4054C23.726 50.277 29.1388 50.1947 33.5638 47.741C41.995 43.0646 45.2661 30.456 37.4819 23.6995C34.5379 21.1444 38.8212 16.8736 41.7461 19.4123C51.8437 28.1768 48.6635 44.3554 38.5777 51.6957ZM53.7037 47.0093C52.2626 50.5848 46.4319 49.0117 47.8884 45.3978C50.6334 38.5892 51.9037 29.4511 48.2274 22.7979C43.4716 14.1897 30.6889 11.038 24.0313 19.1273C21.5544 22.1374 17.3102 17.8246 19.7671 14.8401C28.1792 4.61858 44.1567 7.39298 51.6984 17.1523C58.047 25.3667 57.4373 37.746 53.7028 47.0102L53.7037 47.0093Z" fill="white"/>
</svg>
