<svg width="717" height="96" viewBox="0 0 717 96" fill="none" xmlns="http://www.w3.org/2000/svg">
<path d="M19.4223 24.3043C28.0089 18.0548 40.2955 19.384 49.569 23.3917C53.1281 24.9301 50.0342 29.9116 46.5251 28.6272C45.6728 28.3586 45.2321 28.1731 44.7696 28.0215C42.9305 27.4195 41.0469 26.9353 39.1424 26.5945C34.2731 25.723 28.8603 25.8053 24.4353 28.259C16.004 32.9354 12.733 45.5449 20.5172 52.3014C23.4612 54.8565 19.177 59.1264 16.253 56.5886C6.15535 47.8241 9.33557 31.6455 19.4214 24.3043H19.4223ZM4.29629 28.9907C5.73738 25.4152 11.5681 26.9883 10.1115 30.6022C7.36656 37.4108 6.09629 46.5489 9.77263 53.203C14.5284 61.8112 27.3111 64.962 33.9687 56.8736C36.4456 53.8635 40.6898 58.1763 38.2329 61.1608C29.8207 71.3823 13.8433 68.6079 6.30164 58.8487C-0.0469883 50.6342 0.562706 38.2549 4.2972 28.9907H4.29629ZM39.5777 71.6957C30.9911 77.9452 18.7045 76.616 9.43007 72.6083C5.87095 71.0699 8.94668 65.8491 12.474 67.3728C11.161 66.8055 13.767 67.8269 14.2295 67.9785C16.0686 68.5805 17.9522 69.0638 19.8567 69.4054C24.726 70.277 30.1388 70.1947 34.5638 67.741C42.995 63.0646 46.2661 50.456 38.4819 43.6995C35.5379 41.1444 39.8212 36.8736 42.7461 39.4123C52.8437 48.1768 49.6635 64.3554 39.5777 71.6957ZM54.7037 67.0093C53.2626 70.5848 47.4319 69.0117 48.8884 65.3978C51.6334 58.5892 52.9037 49.4511 49.2274 42.7979C44.4716 34.1897 31.6889 31.038 25.0313 39.1273C22.5544 42.1374 18.3102 37.8246 20.7671 34.8401C29.1792 24.6186 45.1567 27.393 52.6984 37.1523C59.047 45.3667 58.4373 57.746 54.7028 67.0102L54.7037 67.0093Z" fill="#09090B"/>
<path d="M86.88 75V20.4545H107.335C111.525 20.4545 115.04 21.2358 117.881 22.7983C120.74 24.3608 122.897 26.5092 124.353 29.2436C125.827 31.9602 126.564 35.0497 126.564 38.5121C126.564 42.0099 125.827 45.1172 124.353 47.8338C122.88 50.5504 120.705 52.69 117.828 54.2525C114.952 55.7972 111.409 56.5696 107.201 56.5696H93.6449V48.4464H105.87C108.32 48.4464 110.326 48.0202 111.889 47.168C113.451 46.3157 114.605 45.1438 115.351 43.6523C116.115 42.1609 116.496 40.4474 116.496 38.5121C116.496 36.5767 116.115 34.8722 115.351 33.3984C114.605 31.9247 113.442 30.7795 111.862 29.9627C110.3 29.1282 108.284 28.7109 105.816 28.7109H96.761V75H86.88ZM135.47 75V34.0909H144.819V40.9091H145.245C145.991 38.5476 147.269 36.7276 149.08 35.4492C150.909 34.1531 152.995 33.505 155.339 33.505C155.872 33.505 156.467 33.5316 157.123 33.5849C157.798 33.6204 158.358 33.6825 158.801 33.7713V42.6403C158.393 42.4982 157.745 42.3739 156.857 42.2674C155.987 42.1431 155.144 42.081 154.327 42.081C152.569 42.081 150.989 42.4627 149.586 43.2262C148.201 43.9719 147.109 45.0107 146.31 46.3423C145.511 47.674 145.112 49.2099 145.112 50.9499V75H135.47ZM182.117 75.799C178.122 75.799 174.659 74.9201 171.73 73.1623C168.8 71.4045 166.527 68.9453 164.911 65.7848C163.313 62.6243 162.514 58.9311 162.514 54.7053C162.514 50.4794 163.313 46.7773 164.911 43.5991C166.527 40.4208 168.8 37.9528 171.73 36.195C174.659 34.4371 178.122 33.5582 182.117 33.5582C186.112 33.5582 189.574 34.4371 192.504 36.195C195.433 37.9528 197.697 40.4208 199.295 43.5991C200.911 46.7773 201.719 50.4794 201.719 54.7053C201.719 58.9311 200.911 62.6243 199.295 65.7848C197.697 68.9453 195.433 71.4045 192.504 73.1623C189.574 74.9201 186.112 75.799 182.117 75.799ZM182.17 68.0753C184.336 68.0753 186.147 67.4805 187.603 66.2908C189.059 65.0835 190.142 63.4677 190.852 61.4435C191.58 59.4194 191.944 57.1644 191.944 54.6786C191.944 52.1751 191.58 49.9112 190.852 47.8871C190.142 45.8452 189.059 44.2205 187.603 43.0131C186.147 41.8058 184.336 41.2021 182.17 41.2021C179.95 41.2021 178.104 41.8058 176.63 43.0131C175.174 44.2205 174.082 45.8452 173.354 47.8871C172.644 49.9112 172.289 52.1751 172.289 54.6786C172.289 57.1644 172.644 59.4194 173.354 61.4435C174.082 63.4677 175.174 65.0835 176.63 66.2908C178.104 67.4805 179.95 68.0753 182.17 68.0753ZM210.652 34.0909H220.293V77.3438C220.293 80.2912 219.734 82.7237 218.616 84.6413C217.497 86.5589 215.881 87.9883 213.768 88.9293C211.655 89.8704 209.09 90.3409 206.071 90.3409C205.716 90.3409 205.388 90.332 205.086 90.3143C204.784 90.3143 204.455 90.3054 204.1 90.2876V82.4308C204.367 82.4485 204.606 82.4574 204.819 82.4574C205.032 82.4751 205.254 82.484 205.485 82.484C207.332 82.484 208.655 82.0313 209.454 81.1257C210.253 80.2379 210.652 78.9329 210.652 77.2106V34.0909ZM215.446 28.2848C213.901 28.2848 212.579 27.7788 211.478 26.7667C210.395 25.7369 209.853 24.5028 209.853 23.0646C209.853 21.6087 210.395 20.3746 211.478 19.3626C212.579 18.3327 213.901 17.8178 215.446 17.8178C216.973 17.8178 218.278 18.3327 219.361 19.3626C220.462 20.3746 221.013 21.6087 221.013 23.0646C221.013 24.5028 220.462 25.7369 219.361 26.7667C218.278 27.7788 216.973 28.2848 215.446 28.2848ZM249.069 75.799C244.967 75.799 241.425 74.9467 238.442 73.2422C235.477 71.5199 233.195 69.0874 231.597 65.9446C229.999 62.7841 229.2 59.0643 229.2 54.7852C229.2 50.5771 229.999 46.8839 231.597 43.7056C233.213 40.5096 235.468 38.0238 238.362 36.2482C241.256 34.4549 244.656 33.5582 248.562 33.5582C251.084 33.5582 253.463 33.9666 255.7 34.7834C257.955 35.5824 259.944 36.8253 261.666 38.5121C263.406 40.1989 264.773 42.3473 265.768 44.9574C266.762 47.5497 267.259 50.6392 267.259 54.2259V57.1822H233.728V50.6836H258.017C258 48.837 257.6 47.1946 256.819 45.7564C256.038 44.3004 254.946 43.1552 253.543 42.3207C252.158 41.4862 250.542 41.0689 248.696 41.0689C246.725 41.0689 244.994 41.5483 243.502 42.5071C242.011 43.4482 240.848 44.6911 240.013 46.2358C239.196 47.7628 238.779 49.4407 238.761 51.2695V56.9425C238.761 59.3217 239.196 61.3636 240.066 63.0682C240.936 64.755 242.153 66.0511 243.715 66.9567C245.278 67.8445 247.107 68.2884 249.202 68.2884C250.604 68.2884 251.874 68.093 253.01 67.7024C254.147 67.294 255.132 66.6992 255.967 65.918C256.801 65.1367 257.431 64.169 257.858 63.0149L266.86 64.027C266.292 66.4062 265.208 68.4837 263.61 70.2592C262.03 72.017 260.006 73.3842 257.538 74.3608C255.07 75.3196 252.247 75.799 249.069 75.799ZM294.01 75.799C289.926 75.799 286.42 74.9023 283.49 73.109C280.578 71.3157 278.332 68.8388 276.752 65.6783C275.189 62.5 274.408 58.8423 274.408 54.7053C274.408 50.5504 275.207 46.8839 276.805 43.7056C278.403 40.5096 280.658 38.0238 283.57 36.2482C286.5 34.4549 289.962 33.5582 293.957 33.5582C297.277 33.5582 300.216 34.1708 302.773 35.396C305.347 36.6033 307.398 38.3168 308.925 40.5362C310.452 42.7379 311.322 45.3125 311.535 48.2599H302.32C301.947 46.2891 301.059 44.6467 299.657 43.3327C298.272 42.0011 296.416 41.3352 294.09 41.3352C292.119 41.3352 290.388 41.8679 288.897 42.9332C287.405 43.9808 286.242 45.4901 285.408 47.4609C284.591 49.4318 284.182 51.7933 284.182 54.5455C284.182 57.3331 284.591 59.7301 285.408 61.7365C286.224 63.7251 287.37 65.261 288.843 66.3441C290.335 67.4094 292.084 67.9421 294.09 67.9421C295.511 67.9421 296.78 67.6758 297.899 67.1431C299.035 66.5927 299.985 65.8026 300.748 64.7727C301.512 63.7429 302.036 62.4911 302.32 61.0174H311.535C311.304 63.9116 310.452 66.4773 308.978 68.7145C307.505 70.9339 305.498 72.674 302.959 73.9347C300.42 75.1776 297.437 75.799 294.01 75.799ZM340.63 34.0909V41.5483H317.112V34.0909H340.63ZM322.919 24.2898H332.56V62.6953C332.56 63.9915 332.755 64.9858 333.146 65.6783C333.554 66.353 334.087 66.8146 334.744 67.0632C335.401 67.3118 336.129 67.4361 336.928 67.4361C337.531 67.4361 338.082 67.3917 338.579 67.3029C339.094 67.2141 339.485 67.1342 339.751 67.0632L341.376 74.6005C340.861 74.7781 340.124 74.9734 339.165 75.1864C338.224 75.3995 337.07 75.5238 335.703 75.5593C333.288 75.6303 331.113 75.2663 329.177 74.4673C327.242 73.6506 325.706 72.3899 324.57 70.6854C323.451 68.9808 322.901 66.8501 322.919 64.2933V24.2898ZM369.232 75H350.748V20.4545H369.605C375.02 20.4545 379.672 21.5465 383.561 23.7305C387.467 25.8967 390.468 29.0128 392.563 33.0788C394.658 37.1449 395.706 42.0099 395.706 47.674C395.706 53.3558 394.649 58.2386 392.536 62.3224C390.441 66.4062 387.414 69.5401 383.454 71.7241C379.512 73.908 374.772 75 369.232 75ZM360.629 66.4506H368.752C372.552 66.4506 375.722 65.7582 378.261 64.3732C380.8 62.9705 382.708 60.8842 383.987 58.1143C385.265 55.3267 385.904 51.8466 385.904 47.674C385.904 43.5014 385.265 40.0391 383.987 37.2869C382.708 34.517 380.817 32.4485 378.314 31.0813C375.828 29.6964 372.739 29.0039 369.045 29.0039H360.629V66.4506ZM405.418 75V34.0909H415.059V75H405.418ZM410.265 28.2848C408.738 28.2848 407.424 27.7788 406.323 26.7667C405.222 25.7369 404.672 24.5028 404.672 23.0646C404.672 21.6087 405.222 20.3746 406.323 19.3626C407.424 18.3327 408.738 17.8178 410.265 17.8178C411.81 17.8178 413.124 18.3327 414.207 19.3626C415.308 20.3746 415.858 21.6087 415.858 23.0646C415.858 24.5028 415.308 25.7369 414.207 26.7667C413.124 27.7788 411.81 28.2848 410.265 28.2848ZM458.056 44.9041L449.267 45.8629C449.019 44.9751 448.584 44.1406 447.962 43.3594C447.359 42.5781 446.542 41.9478 445.512 41.4684C444.482 40.989 443.222 40.7493 441.73 40.7493C439.724 40.7493 438.037 41.1843 436.67 42.0543C435.32 42.9244 434.654 44.0518 434.672 45.4368C434.654 46.6264 435.089 47.5941 435.977 48.3398C436.883 49.0856 438.374 49.6982 440.452 50.1776L447.43 51.669C451.3 52.5036 454.177 53.8263 456.059 55.6374C457.959 57.4485 458.918 59.8189 458.935 62.7486C458.918 65.3232 458.163 67.5959 456.672 69.5668C455.198 71.5199 453.147 73.0469 450.519 74.1477C447.891 75.2486 444.873 75.799 441.464 75.799C436.457 75.799 432.426 74.7514 429.372 72.6562C426.318 70.5433 424.498 67.6048 423.912 63.8406L433.314 62.935C433.74 64.7816 434.646 66.1754 436.031 67.1165C437.415 68.0575 439.218 68.5281 441.437 68.5281C443.728 68.5281 445.565 68.0575 446.95 67.1165C448.353 66.1754 449.054 65.0124 449.054 63.6275C449.054 62.4556 448.602 61.4879 447.696 60.7244C446.808 59.9609 445.423 59.375 443.541 58.9666L436.563 57.5018C432.639 56.685 429.736 55.3089 427.854 53.3736C425.972 51.4205 425.04 48.9524 425.058 45.9695C425.04 43.4482 425.723 41.2642 427.108 39.4176C428.511 37.5533 430.455 36.1151 432.941 35.103C435.445 34.0732 438.33 33.5582 441.597 33.5582C446.391 33.5582 450.164 34.5792 452.916 36.6211C455.686 38.663 457.4 41.424 458.056 44.9041ZM485.48 75.799C481.396 75.799 477.889 74.9023 474.96 73.109C472.048 71.3157 469.802 68.8388 468.221 65.6783C466.659 62.5 465.878 58.8423 465.878 54.7053C465.878 50.5504 466.677 46.8839 468.275 43.7056C469.873 40.5096 472.128 38.0238 475.04 36.2482C477.969 34.4549 481.432 33.5582 485.427 33.5582C488.747 33.5582 491.686 34.1708 494.242 35.396C496.817 36.6033 498.868 38.3168 500.395 40.5362C501.922 42.7379 502.792 45.3125 503.005 48.2599H493.79C493.417 46.2891 492.529 44.6467 491.126 43.3327C489.741 42.0011 487.886 41.3352 485.56 41.3352C483.589 41.3352 481.858 41.8679 480.366 42.9332C478.875 43.9808 477.712 45.4901 476.877 47.4609C476.061 49.4318 475.652 51.7933 475.652 54.5455C475.652 57.3331 476.061 59.7301 476.877 61.7365C477.694 63.7251 478.839 65.261 480.313 66.3441C481.805 67.4094 483.553 67.9421 485.56 67.9421C486.98 67.9421 488.25 67.6758 489.368 67.1431C490.505 66.5927 491.455 65.8026 492.218 64.7727C492.982 63.7429 493.506 62.4911 493.79 61.0174H503.005C502.774 63.9116 501.922 66.4773 500.448 68.7145C498.974 70.9339 496.968 72.674 494.429 73.9347C491.89 75.1776 488.907 75.799 485.48 75.799ZM529.516 75.799C525.521 75.799 522.059 74.9201 519.129 73.1623C516.199 71.4045 513.927 68.9453 512.311 65.7848C510.713 62.6243 509.914 58.9311 509.914 54.7053C509.914 50.4794 510.713 46.7773 512.311 43.5991C513.927 40.4208 516.199 37.9528 519.129 36.195C522.059 34.4371 525.521 33.5582 529.516 33.5582C533.511 33.5582 536.973 34.4371 539.903 36.195C542.833 37.9528 545.097 40.4208 546.695 43.5991C548.31 46.7773 549.118 50.4794 549.118 54.7053C549.118 58.9311 548.31 62.6243 546.695 65.7848C545.097 68.9453 542.833 71.4045 539.903 73.1623C536.973 74.9201 533.511 75.799 529.516 75.799ZM529.569 68.0753C531.736 68.0753 533.547 67.4805 535.003 66.2908C536.459 65.0835 537.542 63.4677 538.252 61.4435C538.98 59.4194 539.344 57.1644 539.344 54.6786C539.344 52.1751 538.98 49.9112 538.252 47.8871C537.542 45.8452 536.459 44.2205 535.003 43.0131C533.547 41.8058 531.736 41.2021 529.569 41.2021C527.35 41.2021 525.503 41.8058 524.03 43.0131C522.574 44.2205 521.482 45.8452 520.754 47.8871C520.043 49.9112 519.688 52.1751 519.688 54.6786C519.688 57.1644 520.043 59.4194 520.754 61.4435C521.482 63.4677 522.574 65.0835 524.03 66.2908C525.503 67.4805 527.35 68.0753 529.569 68.0753ZM593.201 34.0909L578.633 75H567.979L553.411 34.0909H563.691L573.093 64.4798H573.519L582.947 34.0909H593.201ZM617.342 75.799C613.24 75.799 609.698 74.9467 606.715 73.2422C603.75 71.5199 601.468 69.0874 599.87 65.9446C598.272 62.7841 597.473 59.0643 597.473 54.7852C597.473 50.5771 598.272 46.8839 599.87 43.7056C601.486 40.5096 603.741 38.0238 606.635 36.2482C609.529 34.4549 612.93 33.5582 616.836 33.5582C619.357 33.5582 621.737 33.9666 623.974 34.7834C626.229 35.5824 628.217 36.8253 629.94 38.5121C631.68 40.1989 633.047 42.3473 634.041 44.9574C635.036 47.5497 635.533 50.6392 635.533 54.2259V57.1822H602.001V50.6836H626.291C626.273 48.837 625.874 47.1946 625.092 45.7564C624.311 44.3004 623.219 43.1552 621.816 42.3207C620.431 41.4862 618.816 41.0689 616.969 41.0689C614.998 41.0689 613.267 41.5483 611.776 42.5071C610.284 43.4482 609.121 44.6911 608.287 46.2358C607.47 47.7628 607.053 49.4407 607.035 51.2695V56.9425C607.035 59.3217 607.47 61.3636 608.34 63.0682C609.21 64.755 610.426 66.0511 611.989 66.9567C613.551 67.8445 615.38 68.2884 617.475 68.2884C618.878 68.2884 620.147 68.093 621.284 67.7024C622.42 67.294 623.406 66.6992 624.24 65.918C625.075 65.1367 625.705 64.169 626.131 63.0149L635.133 64.027C634.565 66.4062 633.482 68.4837 631.884 70.2592C630.304 72.017 628.279 73.3842 625.811 74.3608C623.343 75.3196 620.52 75.799 617.342 75.799ZM644.439 75V34.0909H653.788V40.9091H654.214C654.959 38.5476 656.238 36.7276 658.049 35.4492C659.878 34.1531 661.964 33.505 664.308 33.505C664.84 33.505 665.435 33.5316 666.092 33.5849C666.767 33.6204 667.326 33.6825 667.77 33.7713V42.6403C667.362 42.4982 666.714 42.3739 665.826 42.2674C664.956 42.1431 664.112 42.081 663.296 42.081C661.538 42.081 659.958 42.4627 658.555 43.2262C657.17 43.9719 656.078 45.0107 655.279 46.3423C654.48 47.674 654.081 49.2099 654.081 50.9499V75H644.439ZM682.163 90.3409C680.849 90.3409 679.633 90.2344 678.514 90.0213C677.414 89.826 676.535 89.5952 675.878 89.3288L678.115 81.8182C679.518 82.2266 680.769 82.4219 681.87 82.4041C682.971 82.3864 683.939 82.0401 684.773 81.3654C685.626 80.7085 686.345 79.6076 686.931 78.0629L687.756 75.8523L672.921 34.0909H683.149L692.577 64.9858H693.003L702.458 34.0909H712.712L696.332 79.9538C695.569 82.12 694.557 83.9755 693.296 85.5202C692.035 87.0827 690.491 88.2724 688.662 89.0891C686.851 89.9237 684.684 90.3409 682.163 90.3409Z" fill="#09090B"/>
</svg>
